<mxfile host="app.diagrams.net" modified="2023-12-25T10:27:11.156Z" agent="Mozilla/5.0 (X11; Linux x86_64; rv:121.0) Gecko/20100101 Firefox/121.0" etag="kJ1haqnDSPeTKKYA0nYL" version="22.1.11" type="github">
  <diagram name="Page-1" id="R_paWh-pvcNFPVJQKlj_">
    <mxGraphModel dx="1400" dy="738" grid="1" gridSize="10" guides="1" tooltips="1" connect="1" arrows="1" fold="1" page="1" pageScale="1" pageWidth="850" pageHeight="1100" math="0" shadow="0">
      <root>
        <mxCell id="0" />
        <mxCell id="1" parent="0" />
        <mxCell id="Tin-PEM5aFl88TxekTu5-1" value="" style="endArrow=none;dashed=1;html=1;dashPattern=1 3;strokeWidth=2;rounded=0;entryX=0.5;entryY=1;entryDx=0;entryDy=0;" edge="1" parent="1" target="Tin-PEM5aFl88TxekTu5-5">
          <mxGeometry width="50" height="50" relative="1" as="geometry">
            <mxPoint x="220" y="697" as="sourcePoint" />
            <mxPoint x="270" y="250" as="targetPoint" />
          </mxGeometry>
        </mxCell>
        <mxCell id="Tin-PEM5aFl88TxekTu5-2" value="" style="endArrow=none;dashed=1;html=1;dashPattern=1 3;strokeWidth=2;rounded=0;entryX=0.5;entryY=1;entryDx=0;entryDy=0;" edge="1" parent="1" target="Tin-PEM5aFl88TxekTu5-8">
          <mxGeometry width="50" height="50" relative="1" as="geometry">
            <mxPoint x="419" y="700" as="sourcePoint" />
            <mxPoint x="270" y="250" as="targetPoint" />
          </mxGeometry>
        </mxCell>
        <mxCell id="Tin-PEM5aFl88TxekTu5-3" value="" style="endArrow=none;dashed=1;html=1;dashPattern=1 3;strokeWidth=2;rounded=0;entryX=0.5;entryY=1;entryDx=0;entryDy=0;" edge="1" parent="1" target="Tin-PEM5aFl88TxekTu5-10">
          <mxGeometry width="50" height="50" relative="1" as="geometry">
            <mxPoint x="619" y="708" as="sourcePoint" />
            <mxPoint x="270" y="250" as="targetPoint" />
          </mxGeometry>
        </mxCell>
        <mxCell id="Tin-PEM5aFl88TxekTu5-4" value="&lt;div&gt;Пользователь&lt;/div&gt;&lt;div&gt;Администратор&lt;/div&gt;" style="shape=umlActor;verticalLabelPosition=bottom;verticalAlign=top;html=1;outlineConnect=0;align=center;horizontal=1;labelPosition=center;" vertex="1" parent="1">
          <mxGeometry x="70" y="20" width="30" height="60" as="geometry" />
        </mxCell>
        <mxCell id="Tin-PEM5aFl88TxekTu5-5" value="Интерфейс" style="rounded=0;whiteSpace=wrap;html=1;" vertex="1" parent="1">
          <mxGeometry x="160" y="20" width="120" height="60" as="geometry" />
        </mxCell>
        <mxCell id="Tin-PEM5aFl88TxekTu5-6" value="" style="html=1;points=[[0,0,0,0,5],[0,1,0,0,-5],[1,0,0,0,5],[1,1,0,0,-5]];perimeter=orthogonalPerimeter;outlineConnect=0;targetShapes=umlLifeline;portConstraint=eastwest;newEdgeStyle={&quot;curved&quot;:0,&quot;rounded&quot;:0};" vertex="1" parent="1">
          <mxGeometry x="80" y="150" width="10" height="508" as="geometry" />
        </mxCell>
        <mxCell id="Tin-PEM5aFl88TxekTu5-7" value="" style="html=1;points=[[0,0,0,0,5],[0,1,0,0,-5],[1,0,0,0,5],[1,1,0,0,-5]];perimeter=orthogonalPerimeter;outlineConnect=0;targetShapes=umlLifeline;portConstraint=eastwest;newEdgeStyle={&quot;curved&quot;:0,&quot;rounded&quot;:0};" vertex="1" parent="1">
          <mxGeometry x="215" y="150" width="10" height="461" as="geometry" />
        </mxCell>
        <mxCell id="Tin-PEM5aFl88TxekTu5-8" value="Backend API" style="rounded=0;whiteSpace=wrap;html=1;" vertex="1" parent="1">
          <mxGeometry x="360" y="20" width="120" height="60" as="geometry" />
        </mxCell>
        <mxCell id="Tin-PEM5aFl88TxekTu5-9" value="" style="html=1;points=[[0,0,0,0,5],[0,1,0,0,-5],[1,0,0,0,5],[1,1,0,0,-5]];perimeter=orthogonalPerimeter;outlineConnect=0;targetShapes=umlLifeline;portConstraint=eastwest;newEdgeStyle={&quot;curved&quot;:0,&quot;rounded&quot;:0};" vertex="1" parent="1">
          <mxGeometry x="415" y="305" width="10" height="289" as="geometry" />
        </mxCell>
        <mxCell id="Tin-PEM5aFl88TxekTu5-10" value="База данных" style="rounded=0;whiteSpace=wrap;html=1;" vertex="1" parent="1">
          <mxGeometry x="560" y="20" width="120" height="60" as="geometry" />
        </mxCell>
        <mxCell id="Tin-PEM5aFl88TxekTu5-11" value="" style="html=1;points=[[0,0,0,0,5],[0,1,0,0,-5],[1,0,0,0,5],[1,1,0,0,-5]];perimeter=orthogonalPerimeter;outlineConnect=0;targetShapes=umlLifeline;portConstraint=eastwest;newEdgeStyle={&quot;curved&quot;:0,&quot;rounded&quot;:0};" vertex="1" parent="1">
          <mxGeometry x="615" y="311" width="10" height="253" as="geometry" />
        </mxCell>
        <mxCell id="Tin-PEM5aFl88TxekTu5-12" value="" style="endArrow=classic;html=1;rounded=0;" edge="1" parent="1" source="Tin-PEM5aFl88TxekTu5-6" target="Tin-PEM5aFl88TxekTu5-7">
          <mxGeometry width="50" height="50" relative="1" as="geometry">
            <mxPoint x="230" y="280" as="sourcePoint" />
            <mxPoint x="210" y="230" as="targetPoint" />
            <Array as="points">
              <mxPoint x="160" y="180" />
            </Array>
          </mxGeometry>
        </mxCell>
        <mxCell id="Tin-PEM5aFl88TxekTu5-13" value="Открытие веб-страницы" style="edgeLabel;html=1;align=center;verticalAlign=middle;resizable=0;points=[];" vertex="1" connectable="0" parent="Tin-PEM5aFl88TxekTu5-12">
          <mxGeometry x="-0.2298" y="1" relative="1" as="geometry">
            <mxPoint x="12" y="-19" as="offset" />
          </mxGeometry>
        </mxCell>
        <mxCell id="Tin-PEM5aFl88TxekTu5-14" value="" style="endArrow=none;dashed=1;html=1;dashPattern=1 3;strokeWidth=2;rounded=0;" edge="1" parent="1" source="Tin-PEM5aFl88TxekTu5-4" target="Tin-PEM5aFl88TxekTu5-6">
          <mxGeometry width="50" height="50" relative="1" as="geometry">
            <mxPoint x="220" y="300" as="sourcePoint" />
            <mxPoint x="270" y="250" as="targetPoint" />
          </mxGeometry>
        </mxCell>
        <mxCell id="Tin-PEM5aFl88TxekTu5-15" value="" style="endArrow=classic;html=1;rounded=0;" edge="1" parent="1" source="Tin-PEM5aFl88TxekTu5-7" target="Tin-PEM5aFl88TxekTu5-7">
          <mxGeometry width="50" height="50" relative="1" as="geometry">
            <mxPoint x="220" y="300" as="sourcePoint" />
            <mxPoint x="270" y="250" as="targetPoint" />
            <Array as="points">
              <mxPoint x="240" y="180" />
              <mxPoint x="240" y="220" />
            </Array>
          </mxGeometry>
        </mxCell>
        <mxCell id="Tin-PEM5aFl88TxekTu5-16" value="&lt;div&gt;Открытие&lt;/div&gt;&lt;div&gt;&amp;nbsp;маршрута /register&lt;/div&gt;" style="edgeLabel;html=1;align=center;verticalAlign=middle;resizable=0;points=[];" vertex="1" connectable="0" parent="Tin-PEM5aFl88TxekTu5-15">
          <mxGeometry y="-2" relative="1" as="geometry">
            <mxPoint x="62" as="offset" />
          </mxGeometry>
        </mxCell>
        <mxCell id="Tin-PEM5aFl88TxekTu5-17" value="" style="endArrow=classic;html=1;rounded=0;" edge="1" parent="1" source="Tin-PEM5aFl88TxekTu5-7" target="Tin-PEM5aFl88TxekTu5-9">
          <mxGeometry width="50" height="50" relative="1" as="geometry">
            <mxPoint x="180" y="300" as="sourcePoint" />
            <mxPoint x="230" y="250" as="targetPoint" />
            <Array as="points">
              <mxPoint x="318" y="317" />
            </Array>
          </mxGeometry>
        </mxCell>
        <mxCell id="Tin-PEM5aFl88TxekTu5-18" value="&lt;div&gt;Отправка запроса регистрации&lt;br&gt;&lt;/div&gt;" style="edgeLabel;html=1;align=center;verticalAlign=middle;resizable=0;points=[];" vertex="1" connectable="0" parent="Tin-PEM5aFl88TxekTu5-17">
          <mxGeometry x="-0.1702" y="-1" relative="1" as="geometry">
            <mxPoint x="16" y="-11" as="offset" />
          </mxGeometry>
        </mxCell>
        <mxCell id="Tin-PEM5aFl88TxekTu5-19" value="" style="html=1;align=left;spacingLeft=2;endArrow=block;rounded=0;edgeStyle=orthogonalEdgeStyle;curved=0;rounded=0;" edge="1" parent="1" source="Tin-PEM5aFl88TxekTu5-9" target="Tin-PEM5aFl88TxekTu5-9">
          <mxGeometry relative="1" as="geometry">
            <mxPoint x="430" y="310" as="sourcePoint" />
            <Array as="points">
              <mxPoint x="460" y="400" />
              <mxPoint x="460" y="433" />
            </Array>
            <mxPoint x="435" y="340.0344827586207" as="targetPoint" />
          </mxGeometry>
        </mxCell>
        <mxCell id="Tin-PEM5aFl88TxekTu5-20" value="Хэширование пароля" style="edgeLabel;html=1;align=center;verticalAlign=middle;resizable=0;points=[];" vertex="1" connectable="0" parent="Tin-PEM5aFl88TxekTu5-19">
          <mxGeometry x="-0.0255" relative="1" as="geometry">
            <mxPoint x="60" as="offset" />
          </mxGeometry>
        </mxCell>
        <mxCell id="Tin-PEM5aFl88TxekTu5-21" value="" style="endArrow=classic;html=1;rounded=0;" edge="1" parent="1" source="Tin-PEM5aFl88TxekTu5-9">
          <mxGeometry width="50" height="50" relative="1" as="geometry">
            <mxPoint x="250" y="330" as="sourcePoint" />
            <mxPoint x="608" y="331" as="targetPoint" />
          </mxGeometry>
        </mxCell>
        <mxCell id="Tin-PEM5aFl88TxekTu5-22" value="&lt;div&gt;Проверка уникальности логина &lt;br&gt;&lt;/div&gt;&lt;div&gt;в БД&lt;br&gt;&lt;/div&gt;" style="edgeLabel;html=1;align=center;verticalAlign=middle;resizable=0;points=[];" vertex="1" connectable="0" parent="Tin-PEM5aFl88TxekTu5-21">
          <mxGeometry x="-0.09" y="-1" relative="1" as="geometry">
            <mxPoint x="11" y="-21" as="offset" />
          </mxGeometry>
        </mxCell>
        <mxCell id="Tin-PEM5aFl88TxekTu5-23" value="&lt;div&gt;Возвращение результата&lt;/div&gt;&lt;div&gt;проверки уникальности&lt;/div&gt;" style="html=1;verticalAlign=bottom;endArrow=open;dashed=1;endSize=8;curved=0;rounded=0;" edge="1" parent="1" source="Tin-PEM5aFl88TxekTu5-11" target="Tin-PEM5aFl88TxekTu5-9">
          <mxGeometry relative="1" as="geometry">
            <mxPoint x="320" y="300" as="sourcePoint" />
            <mxPoint x="240" y="300" as="targetPoint" />
            <Array as="points">
              <mxPoint x="514" y="378" />
            </Array>
          </mxGeometry>
        </mxCell>
        <mxCell id="Tin-PEM5aFl88TxekTu5-24" value="" style="endArrow=classic;html=1;rounded=0;" edge="1" parent="1" source="Tin-PEM5aFl88TxekTu5-9" target="Tin-PEM5aFl88TxekTu5-11">
          <mxGeometry width="50" height="50" relative="1" as="geometry">
            <mxPoint x="300" y="360" as="sourcePoint" />
            <mxPoint x="350" y="310" as="targetPoint" />
            <Array as="points">
              <mxPoint x="517" y="470" />
            </Array>
          </mxGeometry>
        </mxCell>
        <mxCell id="Tin-PEM5aFl88TxekTu5-25" value="&lt;div&gt;Запись данных&lt;/div&gt;&lt;div&gt;пользователя в БД&lt;br&gt;&lt;/div&gt;" style="edgeLabel;html=1;align=center;verticalAlign=middle;resizable=0;points=[];" vertex="1" connectable="0" parent="Tin-PEM5aFl88TxekTu5-24">
          <mxGeometry x="-0.0995" relative="1" as="geometry">
            <mxPoint x="9" y="-20" as="offset" />
          </mxGeometry>
        </mxCell>
        <mxCell id="Tin-PEM5aFl88TxekTu5-26" value="&lt;div&gt;Возвращение статуса &lt;br&gt;&lt;/div&gt;&lt;div&gt;успешности &lt;br&gt;&lt;/div&gt;&lt;div&gt;создания записи&lt;br&gt;&lt;/div&gt;" style="html=1;verticalAlign=bottom;endArrow=open;dashed=1;endSize=8;curved=0;rounded=0;" edge="1" parent="1" source="Tin-PEM5aFl88TxekTu5-11" target="Tin-PEM5aFl88TxekTu5-9">
          <mxGeometry relative="1" as="geometry">
            <mxPoint x="420" y="400" as="sourcePoint" />
            <mxPoint x="340" y="400" as="targetPoint" />
            <Array as="points">
              <mxPoint x="504" y="548" />
            </Array>
          </mxGeometry>
        </mxCell>
        <mxCell id="Tin-PEM5aFl88TxekTu5-27" value="&lt;div&gt;Возвращение на клиент&lt;/div&gt;&lt;div&gt;данных пользователя&lt;/div&gt;&lt;div&gt;и запись в cookie&lt;/div&gt;&lt;div&gt;токена авторизации&lt;br&gt;&lt;/div&gt;" style="html=1;verticalAlign=bottom;endArrow=open;dashed=1;endSize=8;curved=0;rounded=0;" edge="1" parent="1" source="Tin-PEM5aFl88TxekTu5-9" target="Tin-PEM5aFl88TxekTu5-7">
          <mxGeometry relative="1" as="geometry">
            <mxPoint x="420" y="400" as="sourcePoint" />
            <mxPoint x="340" y="400" as="targetPoint" />
            <Array as="points">
              <mxPoint x="307" y="576" />
            </Array>
          </mxGeometry>
        </mxCell>
        <mxCell id="Tin-PEM5aFl88TxekTu5-28" value="&lt;div&gt;Переадресация&lt;/div&gt;&lt;div&gt;в калькулятор&lt;br&gt;&lt;/div&gt;" style="html=1;verticalAlign=bottom;endArrow=open;dashed=1;endSize=8;curved=0;rounded=0;" edge="1" parent="1" source="Tin-PEM5aFl88TxekTu5-7" target="Tin-PEM5aFl88TxekTu5-6">
          <mxGeometry relative="1" as="geometry">
            <mxPoint x="430" y="400" as="sourcePoint" />
            <mxPoint x="350" y="400" as="targetPoint" />
            <Array as="points">
              <mxPoint x="156" y="599" />
            </Array>
          </mxGeometry>
        </mxCell>
        <mxCell id="Tin-PEM5aFl88TxekTu5-29" value="ref" style="shape=umlFrame;whiteSpace=wrap;html=1;pointerEvents=0;labelBackgroundColor=default;" vertex="1" parent="1">
          <mxGeometry x="61" y="225" width="204" height="63" as="geometry" />
        </mxCell>
        <mxCell id="Tin-PEM5aFl88TxekTu5-30" value="&lt;div&gt;Ввод логина и пароля,&lt;/div&gt;&lt;div&gt;&amp;nbsp;загрузка аватара&lt;/div&gt;" style="text;html=1;align=center;verticalAlign=middle;resizable=0;points=[];autosize=1;strokeColor=none;fillColor=none;" vertex="1" parent="1">
          <mxGeometry x="81" y="252" width="144" height="41" as="geometry" />
        </mxCell>
        <mxCell id="Tin-PEM5aFl88TxekTu5-31" value="" style="endArrow=classic;html=1;rounded=0;" edge="1" parent="1" source="Tin-PEM5aFl88TxekTu5-6" target="Tin-PEM5aFl88TxekTu5-7">
          <mxGeometry width="50" height="50" relative="1" as="geometry">
            <mxPoint x="246" y="432" as="sourcePoint" />
            <mxPoint x="296" y="382" as="targetPoint" />
            <Array as="points">
              <mxPoint x="148" y="301" />
            </Array>
          </mxGeometry>
        </mxCell>
        <mxCell id="Tin-PEM5aFl88TxekTu5-32" value="&lt;div&gt;Нажатие на&lt;/div&gt;&lt;div&gt;кнопку&amp;nbsp;&lt;/div&gt;&lt;div&gt;&quot;Зарегистрироваться&quot;&lt;br&gt;&lt;/div&gt;" style="edgeLabel;html=1;align=center;verticalAlign=middle;resizable=0;points=[];" vertex="1" connectable="0" parent="Tin-PEM5aFl88TxekTu5-31">
          <mxGeometry x="0.1147" y="1" relative="1" as="geometry">
            <mxPoint x="-4" y="27" as="offset" />
          </mxGeometry>
        </mxCell>
      </root>
    </mxGraphModel>
  </diagram>
</mxfile>
